<svg width="16" height="17" viewBox="0 0 16 17" fill="none" xmlns="http://www.w3.org/2000/svg">
<path opacity="0.5" d="M5.36569 4.73431C5.05327 4.4219 4.54673 4.4219 4.23431 4.73431C3.9219 5.04673 3.9219 5.55327 4.23431 5.86569L6.86863 8.5L4.23431 11.1343C3.9219 11.4467 3.9219 11.9533 4.23431 12.2657C4.54673 12.5781 5.05327 12.5781 5.36569 12.2657L8 9.63137L10.6343 12.2657C10.9467 12.5781 11.4533 12.5781 11.7657 12.2657C12.0781 11.9533 12.0781 11.4467 11.7657 11.1343L9.13137 8.5L11.7657 5.86569C12.0781 5.55327 12.0781 5.04673 11.7657 4.73431C11.4533 4.4219 10.9467 4.4219 10.6343 4.73431L8 7.36863L5.36569 4.73431Z" fill="#5C5F62"/>
</svg>
