<svg width="14" height="8" viewBox="0 0 14 8" fill="none" xmlns="http://www.w3.org/2000/svg">
<path d="M6.99316 8.00732C6.82161 8.00732 6.66113 7.97412 6.51172 7.90771C6.36784 7.84684 6.22396 7.74447 6.08008 7.60059L1.26562 2.71143C1.05534 2.50114 0.950195 2.24382 0.950195 1.93945C0.950195 1.62956 1.05811 1.36393 1.27393 1.14258C1.48975 0.921224 1.7526 0.810547 2.0625 0.810547C2.3724 0.810547 2.64632 0.932292 2.88428 1.17578L7.00146 5.37598L11.1021 1.17578C11.34 0.932292 11.6139 0.810547 11.9238 0.810547C12.2337 0.810547 12.4966 0.921224 12.7124 1.14258C12.9282 1.36393 13.0361 1.62956 13.0361 1.93945C13.0361 2.24382 12.931 2.50114 12.7207 2.71143L7.90625 7.60059C7.64062 7.87174 7.33626 8.00732 6.99316 8.00732Z" fill="#3C3C43" fill-opacity="0.3"/>
</svg>
