<svg width="24" height="24" viewBox="0 0 24 24" fill="none" xmlns="http://www.w3.org/2000/svg">
<path d="M3.54785 20.9388H20.4479C20.5805 20.9388 20.7076 20.8861 20.8014 20.7923C20.8952 20.6985 20.9479 20.5714 20.9479 20.4388C20.9479 20.3061 20.8952 20.179 20.8014 20.0852C20.7076 19.9914 20.5805 19.9388 20.4479 19.9388H3.54785C3.41524 19.9388 3.28807 19.9914 3.1943 20.0852C3.10053 20.179 3.04785 20.3061 3.04785 20.4388C3.04785 20.5714 3.10053 20.6985 3.1943 20.7923C3.28807 20.8861 3.41524 20.9388 3.54785 20.9388ZM9.70985 17.1808C10.1323 17.0625 10.5177 16.8389 10.8299 16.5308L20.3699 6.99075C20.6966 6.66276 20.88 6.21869 20.88 5.75575C20.88 5.29282 20.6966 4.84874 20.3699 4.52075L19.4299 3.59075C19.0972 3.27301 18.6549 3.0957 18.1949 3.0957C17.7348 3.0957 17.2925 3.27301 16.9599 3.59075L7.41985 13.1208C7.11119 13.4309 6.89035 13.8174 6.77985 14.2408L6.03985 17.0008C6.00474 17.1268 6.00384 17.26 6.03723 17.3865C6.07062 17.5131 6.13711 17.6284 6.22985 17.7208C6.3714 17.8599 6.56137 17.9388 6.75985 17.9408L9.70985 17.1808ZM10.1199 15.8208C9.9355 16.0084 9.7041 16.1431 9.44985 16.2108L8.47985 16.4708L7.47985 15.4708L7.73985 14.5008C7.8098 14.2475 7.94416 14.0167 8.12985 13.8308L8.50985 13.4608L10.4999 15.4508L10.1199 15.8208ZM11.2099 14.7408L9.21985 12.7508L15.9499 6.02075L17.9399 8.01075L11.2099 14.7408ZM19.6599 6.29075L18.6499 7.30075L16.6599 5.31075L17.6699 4.29075C17.7393 4.22097 17.8219 4.1656 17.9129 4.12782C18.0038 4.09003 18.1014 4.07058 18.1999 4.07058C18.2983 4.07058 18.3959 4.09003 18.4868 4.12782C18.5778 4.1656 18.6604 4.22097 18.7299 4.29075L19.6599 5.23075C19.7993 5.37189 19.8776 5.56232 19.8776 5.76075C19.8776 5.95918 19.7993 6.14962 19.6599 6.29075Z" fill="black"/>
</svg>
