<svg width="24" height="24" viewBox="0 0 24 24" fill="none" xmlns="http://www.w3.org/2000/svg">
<path d="M19.3701 10.2202L13.1701 2.62021C13.0302 2.44621 12.8532 2.30563 12.6521 2.20872C12.4509 2.11181 12.2307 2.06103 12.0074 2.06007C11.7842 2.05911 11.5635 2.10801 11.3616 2.20318C11.1596 2.29836 10.9814 2.43742 10.8401 2.61021L4.63006 10.2202C4.26135 10.668 4.05984 11.2301 4.06006 11.8102V19.4402C4.06191 20.1027 4.32589 20.7375 4.79433 21.2059C5.26277 21.6744 5.89759 21.9384 6.56006 21.9402H17.4401C18.1025 21.9384 18.7373 21.6744 19.2058 21.2059C19.6742 20.7375 19.9382 20.1027 19.9401 19.4402V11.8102C19.9403 11.2301 19.7388 10.668 19.3701 10.2202ZM10.0001 20.9402V15.4402C10.0001 15.0424 10.1581 14.6609 10.4394 14.3796C10.7207 14.0982 11.1022 13.9402 11.5001 13.9402H12.5001C12.8979 13.9402 13.2794 14.0982 13.5607 14.3796C13.842 14.6609 14.0001 15.0424 14.0001 15.4402V20.9402H10.0001ZM18.9401 19.4402C18.9374 19.8372 18.7786 20.2172 18.4978 20.498C18.2171 20.7787 17.8371 20.9376 17.4401 20.9402H15.0001V15.4402C15.0001 14.7772 14.7367 14.1413 14.2678 13.6724C13.799 13.2036 13.1631 12.9402 12.5001 12.9402H11.5001C10.837 12.9402 10.2011 13.2036 9.73229 13.6724C9.26345 14.1413 9.00006 14.7772 9.00006 15.4402V20.9402H6.56006C6.16304 20.9376 5.78303 20.7787 5.50229 20.498C5.22156 20.2172 5.06268 19.8372 5.06006 19.4402V11.8102C5.05776 11.4634 5.17819 11.1268 5.40006 10.8602L11.6201 3.25021C11.664 3.19093 11.7213 3.14283 11.7874 3.10983C11.8534 3.07682 11.9262 3.05982 12.0001 3.06021C12.0754 3.05904 12.15 3.07563 12.2177 3.10864C12.2855 3.14165 12.3445 3.19015 12.3901 3.25021L18.6001 10.8602C18.8219 11.1268 18.9424 11.4634 18.9401 11.8102V19.4402Z" fill="#8E8E93"/>
</svg>
