<svg width="110" height="110" viewBox="0 0 110 110" fill="none" xmlns="http://www.w3.org/2000/svg">
<rect width="110" height="110" rx="16.57" fill="#FFCC00"/>
<path d="M43.1642 68.4854C40.9505 68.4854 39.0152 68.1618 37.3582 67.5146C35.7142 66.8543 34.4196 65.9158 33.4746 64.6989C32.5296 63.4691 31.9989 61.9934 31.8823 60.2716L31.8629 59.961H37.3971L37.4359 60.1746C37.5653 60.8995 37.889 61.5273 38.4068 62.0581C38.9375 62.5759 39.6236 62.9837 40.4651 63.2814C41.3065 63.5662 42.258 63.7086 43.3195 63.7086C44.4069 63.7086 45.339 63.5662 46.1157 63.2814C46.9054 62.9837 47.5138 62.5694 47.941 62.0387C48.3812 61.495 48.6012 60.8671 48.6012 60.1551V60.1357C48.6012 59.1907 48.2258 58.4528 47.475 57.9221C46.7371 57.3784 45.4943 56.9253 43.7467 56.5628L40.7952 55.9803C38.0378 55.4236 35.9601 54.4851 34.562 53.1647C33.1639 51.8442 32.4649 50.129 32.4649 48.0189V47.9995C32.4649 46.2907 32.9244 44.802 33.8436 43.5333C34.7627 42.2518 36.0248 41.2614 37.6301 40.5624C39.2353 39.8504 41.0735 39.4944 43.1448 39.4944C45.3066 39.4944 47.1708 39.831 48.7371 40.5041C50.3165 41.1773 51.5463 42.1288 52.4266 43.3586C53.3068 44.5884 53.7923 46.0189 53.8829 47.65L53.9023 48.0189H48.3682L48.3488 47.7859C48.2452 47.048 47.9669 46.4202 47.5138 45.9023C47.0607 45.3716 46.4588 44.9638 45.7079 44.679C44.9701 44.3942 44.1157 44.2518 43.1448 44.2518C42.148 44.2518 41.2871 44.4007 40.5622 44.6984C39.8372 44.9832 39.2806 45.3781 38.8922 45.8829C38.5168 46.3878 38.3291 46.9768 38.3291 47.65V47.6694C38.3291 48.5497 38.7045 49.2617 39.4554 49.8054C40.2062 50.3491 41.3842 50.7827 42.9894 51.1064L45.9604 51.7083C47.9151 52.0967 49.5203 52.6339 50.776 53.32C52.0317 54.0061 52.9573 54.8734 53.5528 55.922C54.1612 56.9576 54.4655 58.2069 54.4655 59.6697V59.6891C54.4655 61.4885 54.0124 63.0484 53.1062 64.3688C52.213 65.6763 50.9184 66.6925 49.2226 67.4175C47.5397 68.1295 45.5202 68.4854 43.1642 68.4854ZM63.9803 68V44.8149H55.883V39.9799H77.9612V44.8149H69.8445V68H63.9803Z" fill="black"/>
</svg>
