<svg width="25" height="24" viewBox="0 0 25 24" fill="none" xmlns="http://www.w3.org/2000/svg">
<path d="M20.8644 18.9787V19.4787H21.3644H22.9661C22.9818 19.4787 22.9928 19.4848 22.9977 19.4894C22.9928 19.494 22.9818 19.5 22.9661 19.5H3.0339C3.0182 19.5 3.00721 19.4939 3.00225 19.4894C3.00721 19.4848 3.0182 19.4787 3.0339 19.4787H4.63559H5.13559V18.9787V5.02128V4.52128H4.63559H4.45763C4.44193 4.52128 4.43094 4.51522 4.42598 4.51064C4.43094 4.50605 4.44193 4.5 4.45763 4.5H17.2712C17.2869 4.5 17.2979 4.50605 17.3028 4.51064C17.2979 4.51522 17.2869 4.52128 17.2712 4.52128H17.0932H16.5932V5.02128V8.08511V8.58511H17.0932H21.5424C21.5581 8.58511 21.569 8.59116 21.574 8.59575C21.569 8.60034 21.5581 8.60638 21.5424 8.60638H21.3644H20.8644V9.10638V18.9787ZM20.7966 9.10638V8.60638H20.2966H17.0932H16.5932V9.10638V18.9787V19.4787H17.0932H20.2966H20.7966V18.9787V9.10638ZM5.70339 4.52128H5.20339V5.02128V18.9787V19.4787H5.70339H8.19492H8.69492V18.9787V14.7259C8.6953 14.7253 8.69593 14.7246 8.69689 14.7237C8.70171 14.7191 8.71281 14.7128 8.72881 14.7128H13C13.016 14.7128 13.0271 14.7191 13.0319 14.7237C13.0329 14.7246 13.0335 14.7253 13.0339 14.7259V18.9787V19.4787H13.5339H16.0254H16.5254V18.9787V5.02128V4.52128H16.0254H5.70339ZM12.4661 19.4787H12.9661V18.9787V15.234V14.734H12.4661H9.26271H8.76271V15.234V18.9787V19.4787H9.26271H12.4661Z" fill="black" stroke="#8E8E93"/>
<rect x="5.5" y="7" width="7" height="1" rx="0.5" fill="#8E8E93"/>
</svg>
