<svg width="20" height="20" viewBox="0 0 20 20" fill="none" xmlns="http://www.w3.org/2000/svg">
<path d="M19 9.99791C19.003 11.7847 18.4715 13.5315 17.474 15.0139C16.6514 16.2409 15.5391 17.2462 14.2355 17.9411C12.9319 18.636 11.4772 18.9989 10 18.9979C8.52279 18.9989 7.06808 18.636 5.76451 17.9411C4.46093 17.2462 3.34865 16.2409 2.526 15.0139C1.74273 13.8463 1.2439 12.5115 1.06951 11.1164C0.895109 9.72124 1.05 8.30467 1.52175 6.9802C1.9935 5.65573 2.769 4.46021 3.78607 3.48947C4.80314 2.51873 6.0335 1.79978 7.37851 1.39025C8.72352 0.980724 10.1458 0.892009 11.5312 1.13122C12.9167 1.37043 14.2269 1.93091 15.3567 2.76773C16.4865 3.60455 17.4046 4.69444 18.0373 5.95002C18.67 7.20559 18.9997 8.59194 19 9.99791Z" stroke="black"/>
<path d="M11.4999 6.9978C11.4999 7.39563 11.3419 7.77716 11.0605 8.05846C10.7792 8.33977 10.3977 8.4978 9.99989 8.4978V9.4978C10.3282 9.4978 10.6533 9.43314 10.9566 9.3075C11.2599 9.18187 11.5355 8.99772 11.7677 8.76557C11.9998 8.53342 12.1839 8.25783 12.3096 7.95451C12.4352 7.6512 12.4999 7.32611 12.4999 6.9978H11.4999ZM9.99989 8.4978C9.60206 8.4978 9.22053 8.33977 8.93923 8.05846C8.65792 7.77716 8.49989 7.39563 8.49989 6.9978H7.49989C7.49989 7.32611 7.56455 7.6512 7.69019 7.95451C7.81582 8.25783 7.99997 8.53342 8.23212 8.76557C8.70096 9.23441 9.33685 9.4978 9.99989 9.4978V8.4978ZM8.49989 6.9978C8.49989 6.59998 8.65792 6.21845 8.93923 5.93714C9.22053 5.65584 9.60206 5.4978 9.99989 5.4978V4.4978C9.33685 4.4978 8.70096 4.76119 8.23212 5.23004C7.76328 5.69888 7.49989 6.33476 7.49989 6.9978H8.49989ZM9.99989 5.4978C10.3977 5.4978 10.7792 5.65584 11.0605 5.93714C11.3419 6.21845 11.4999 6.59998 11.4999 6.9978H12.4999C12.4999 6.33476 12.2365 5.69888 11.7677 5.23004C11.2988 4.76119 10.6629 4.4978 9.99989 4.4978V5.4978ZM3.16589 15.8538L2.68589 15.7118L2.60889 15.9728L2.78589 16.1798L3.16589 15.8538ZM16.8339 15.8538L17.2139 16.1798L17.3909 15.9728L17.3129 15.7118L16.8339 15.8538ZM6.99989 13.4978H12.9999V12.4978H6.99989V13.4978ZM6.99989 12.4978C6.03082 12.498 5.08768 12.8108 4.31064 13.3899C3.53359 13.9689 2.96313 14.7832 2.68589 15.7118L3.64489 15.9968C3.86075 15.2747 4.3038 14.6415 4.90823 14.1913C5.51266 13.7411 6.24621 13.4979 6.99989 13.4978V12.4978ZM9.99989 18.4978C8.77315 18.4991 7.56074 18.2342 6.44631 17.7215C5.33188 17.2087 4.34197 16.4603 3.54489 15.5278L2.78589 16.1798C3.67694 17.2216 4.78332 18.0577 6.02876 18.6305C7.27419 19.2033 8.62904 19.4992 9.99989 19.4978V18.4978ZM12.9999 13.4978C13.7537 13.4979 14.4873 13.7413 15.0918 14.1917C15.6962 14.6421 16.1392 15.2755 16.3549 15.9978L17.3129 15.7118C17.0356 14.7832 16.4662 13.9689 15.6891 13.3899C14.9121 12.8108 13.969 12.498 12.9999 12.4978V13.4978ZM16.4549 15.5278C15.6578 16.4603 14.6679 17.2087 13.5535 17.7215C12.439 18.2342 11.2266 18.4991 9.99989 18.4978V19.4978C11.3707 19.4992 12.7256 19.2033 13.971 18.6305C15.2165 18.0577 16.3228 17.2216 17.2139 16.1798L16.4549 15.5278Z" fill="black"/>
</svg>
